HIERARCHY
ROOT Hips
{
	OFFSET 0.000000 0.000000 0.000000
	CHANNELS 6 Xposition Yposition Zposition Zrotation Yrotation Xrotation 
	JOINT LowerBack
	{
		OFFSET 0.000000 0.000000 0.000000
		CHANNELS 3 Zrotation Yrotation Xrotation
		JOINT Spine
		{
			OFFSET 0.028270 2.035590 -0.193380
			CHANNELS 3 Zrotation Yrotation Xrotation
			JOINT Spine1
			{
				OFFSET 0.056720 2.048850 -0.042750
				CHANNELS 3 Zrotation Yrotation Xrotation
				JOINT Neck
				{
					OFFSET 0.000000 0.000000 0.000000
					CHANNELS 3 Zrotation Yrotation Xrotation
					JOINT Neck1
					{
						OFFSET -0.054170 1.746240 0.172020
						CHANNELS 3 Zrotation Yrotation Xrotation
						JOINT Head
						{
							OFFSET 0.104070 1.761360 -0.123970
							CHANNELS 3 Zrotation Yrotation Xrotation
							End Site
							{
								OFFSET 0.000000 0.000000 0.000000
							}
						}
					}
				}
				JOINT LeftShoulder
				{
					OFFSET 0.000000 0.000000 0.000000
					CHANNELS 3 Zrotation Yrotation Xrotation
					JOINT LeftArm
					{
						OFFSET 3.362410 1.200890 -0.311210
						CHANNELS 3 Zrotation Yrotation Xrotation
						JOINT LeftForeArm
						{
							OFFSET 4.983000 -0.000000 -0.000000
							CHANNELS 3 Zrotation Yrotation Xrotation
							JOINT LeftHand
							{
								OFFSET 3.483560 -0.000000 -0.000000
								CHANNELS 3 Zrotation Yrotation Xrotation
								JOINT LeftFingerBase
								{
									OFFSET 0.000000 0.000000 0.000000
									CHANNELS 3 Zrotation Yrotation Xrotation
									JOINT LeftHandIndex1
									{
										OFFSET 0.715260 -0.000000 -0.000000
										CHANNELS 3 Zrotation Yrotation Xrotation
										End Site
										{
											OFFSET 0.000000 0.000000 0.000000
										}
									}
								}
								JOINT LThumb
								{
									OFFSET 0.000000 0.000000 0.000000
									CHANNELS 3 Zrotation Yrotation Xrotation
									End Site
									{
										OFFSET 0.000000 0.000000 0.000000
									}
								}
							}
						}
					}
				}
				JOINT RightShoulder
				{
					OFFSET 0.000000 0.000000 0.000000
					CHANNELS 3 Zrotation Yrotation Xrotation
					JOINT RightArm
					{
						OFFSET -3.136600 1.374050 -0.404650
						CHANNELS 3 Zrotation Yrotation Xrotation
						JOINT RightForeArm
						{
							OFFSET -5.241900 -0.000000 -0.000000
							CHANNELS 3 Zrotation Yrotation Xrotation
							JOINT RightHand
							{
								OFFSET -3.444170 -0.000000 -0.000000
								CHANNELS 3 Zrotation Yrotation Xrotation
								JOINT RightFingerBase
								{
									OFFSET 0.000000 0.000000 0.000000
									CHANNELS 3 Zrotation Yrotation Xrotation
									JOINT RightHandIndex1
									{
										OFFSET -0.622530 -0.000000 -0.000000
										CHANNELS 3 Zrotation Yrotation Xrotation
										End Site
										{
											OFFSET 0.000000 0.000000 0.000000
										}
									}
								}
								JOINT RThumb
								{
									OFFSET 0.000000 0.000000 0.000000
									CHANNELS 3 Zrotation Yrotation Xrotation
									End Site
									{
										OFFSET 0.000000 0.000000 0.000000
									}
								}
							}
						}
					}
				}
			}
		}
	}
}
}
MOTION
Frames: 9
Frame Time: 0.008333
-5.131415 17.092197 -1.154328 2.901546 -74.964591 -1.586230 -5.232159 -2.084162 -6.689922 -1.654091 -1.830194 -3.462850 -5.150209 -1.892139 2.539546 8.157067 -16.165541 -8.782807 -1.459084 -0.096654 -0.249429 0.000000 0.000000 0.000000 1.747967 16.722306 1.689680 -28.489279 -1.018721 -1.393047 -0.588914 -73.635455 0.016995 -8.451439 7.563909 -0.555549 0.034695 0.080577 0.000000 0.000000 0.000000 0.000000 0.000000 0.000000 0.000000 9.076530 -11.096764 -0.019754 31.874610 16.148713 2.286457 0.301010 64.220564 -0.002679 -1.052566 0.668584 -0.007770 0.019219 -0.215820 0.000000 0.000000 0.000000 0.000000 0.000000 0.000000 0.000000 
-5.122893 17.091077 -1.169242 3.025717 -75.280017 -1.676028 -5.158650 -2.128399 -6.664562 -1.635102 -1.879844 -3.454420 -5.162925 -1.941134 2.560072 8.318307 -16.315628 -8.847243 -1.455572 -0.095437 -0.266015 0.000000 0.000000 0.000000 1.780464 16.688623 1.722153 -28.695858 -0.753728 -0.981558 -0.653528 -72.686875 0.015615 -8.426950 7.546083 -0.552524 0.029091 0.076106 -0.000000 0.000000 0.000000 0.000000 0.000000 0.000000 0.000000 9.283875 -11.281550 -0.016106 32.603753 15.711575 2.508663 0.346399 63.741176 -0.002740 -1.130777 0.819177 -0.009843 0.024003 -0.212628 0.000000 0.000000 0.000000 0.000000 0.000000 0.000000 0.000000 
-5.114528 17.089937 -1.184649 3.157773 -75.590261 -1.778552 -5.088603 -2.171302 -6.633923 -1.617245 -1.927892 -3.445962 -5.176703 -1.988541 2.576963 8.475288 -16.467978 -8.909352 -1.452009 -0.094258 -0.281934 0.000000 0.000000 0.000000 1.820276 16.636452 1.750583 -28.934253 -0.456408 -0.569167 -0.720544 -71.723189 0.014167 -8.365936 7.512399 -0.545997 0.023006 0.071885 -0.000000 0.000000 0.000000 0.000000 0.000000 0.000000 0.000000 9.481190 -11.467758 -0.012984 33.384046 15.256226 2.692344 0.395415 63.232045 -0.002726 -1.196456 0.954816 -0.011817 0.028724 -0.209291 0.000000 0.000000 0.000000 0.000000 0.000000 0.000000 0.000000 
-5.106159 17.088731 -1.200564 3.295739 -75.895594 -1.895458 -5.021939 -2.212600 -6.596390 -1.600600 -1.974061 -3.437143 -5.191750 -2.034045 2.590140 8.629133 -16.626532 -8.969962 -1.448266 -0.093093 -0.297415 0.000000 0.000000 0.000000 1.868964 16.566589 1.774515 -29.205763 -0.129279 -0.152650 -0.790039 -70.739567 0.012659 -8.265306 7.463845 -0.535669 0.016433 0.067895 0.000000 0.000000 0.000000 0.000000 0.000000 0.000000 0.000000 9.670007 -11.659298 -0.010742 34.215762 14.783834 2.830680 0.447888 62.696226 -0.002667 -1.255634 1.072265 -0.013791 0.033444 -0.205844 0.000000 0.000000 0.000000 0.000000 0.000000 0.000000 0.000000 
-5.097930 17.087498 -1.216978 3.443684 -76.196053 -2.030049 -4.958350 -2.252595 -6.552039 -1.585187 -2.018702 -3.428732 -5.208487 -2.078060 2.596928 8.778246 -16.775267 -9.025710 -1.444828 -0.092037 -0.311536 0.000000 0.000000 0.000000 1.926759 16.475396 1.795309 -29.509064 0.235642 0.270370 -0.862192 -69.736839 0.011095 -8.127367 7.402248 -0.522138 0.009365 0.064066 -0.000000 0.000000 0.000000 0.000000 0.000000 0.000000 0.000000 9.845214 -11.838695 -0.010553 35.104534 14.264472 2.911787 0.503151 62.151369 -0.002589 -1.313302 1.170171 -0.015565 0.038175 -0.202340 0.000000 0.000000 0.000000 0.000000 0.000000 0.000000 0.000000 
-5.089906 17.086213 -1.233753 3.599076 -76.492946 -2.180012 -4.896306 -2.291030 -6.502133 -1.570698 -2.061705 -3.419915 -5.226941 -2.120350 2.601152 8.927122 -16.934511 -9.081752 -1.441699 -0.091009 -0.325700 0.000000 0.000000 0.000000 1.991765 16.374726 1.811438 -29.843154 0.621135 0.706450 -0.937104 -68.708337 0.009492 -7.956105 7.330624 -0.505907 0.001919 0.060309 0.000000 0.000000 0.000000 0.000000 0.000000 0.000000 0.000000 10.019698 -12.028506 -0.012013 36.029872 13.734744 2.948625 0.560991 61.587106 -0.002524 -1.379949 1.256154 -0.017439 0.043028 -0.198860 0.000000 0.000000 0.000000 0.000000 0.000000 0.000000 0.000000 
-5.082084 17.084876 -1.250832 3.762250 -76.786996 -2.346893 -4.834517 -2.328355 -6.448154 -1.556947 -2.103669 -3.411876 -5.247577 -2.161597 2.599596 9.072960 -17.082549 -9.133614 -1.439782 -0.090156 -0.338694 0.000000 0.000000 0.000000 2.061876 16.261728 1.824830 -30.204271 1.036059 1.158094 -1.015048 -67.657726 0.007867 -7.763033 7.253231 -0.487975 -0.005817 0.056483 -0.000000 0.000000 0.000000 0.000000 0.000000 0.000000 0.000000 10.187935 -12.205201 -0.016447 36.993016 13.160172 2.935174 0.620347 61.022840 -0.002480 -1.457442 1.332764 -0.019412 0.047934 -0.195454 0.000000 0.000000 0.000000 0.000000 0.000000 0.000000 0.000000 
-5.074576 17.083477 -1.268051 3.930317 -77.079229 -2.526529 -4.771201 -2.364784 -6.393276 -1.543438 -2.144978 -3.404229 -5.270030 -2.202101 2.595974 9.219031 -17.235204 -9.185578 -1.439278 -0.089427 -0.351678 0.000000 0.000000 0.000000 2.133933 16.148618 1.834414 -30.591023 1.465140 1.630588 -1.096185 -66.581376 0.006236 -7.559177 7.174646 -0.469644 -0.013668 0.052461 -0.000000 0.000000 0.000000 0.000000 0.000000 0.000000 0.000000 10.361746 -12.386852 -0.023395 37.969529 12.574060 2.892799 0.680922 60.448233 -0.002476 -1.553118 1.410456 -0.021786 0.052957 -0.192166 0.000000 0.000000 0.000000 0.000000 0.000000 0.000000 0.000000 
-5.067591 17.082057 -1.285243 4.102000 -77.370168 -2.714621 -4.704795 -2.400880 -6.341048 -1.529688 -2.186349 -3.397162 -5.293907 -2.242563 2.592287 9.366287 -17.396144 -9.238939 -1.440554 -0.088837 -0.364991 0.000000 0.000000 0.000000 2.205057 16.043231 1.840205 -31.000814 1.900630 2.126507 -1.180738 -65.479489 0.004617 -7.359460 7.100729 -0.452213 -0.021455 0.048102 -0.000000 0.000000 0.000000 0.000000 0.000000 0.000000 0.000000 10.546940 -12.578445 -0.032918 38.942936 11.989832 2.840548 0.742373 59.859820 -0.002511 -1.670762 1.497030 -0.024660 0.058111 -0.188996 0.000000 0.000000 0.000000 0.000000 0.000000 0.000000 0.000000 
